#!OML:ASF X:\2005_08_12_Meinard\c3d\meinard.ASF
:FULLY-SPECIFIED
:DEGREES
932
root 3.77046 16.3199 -1.15741 -13.9868 -84.1698 -1.0895
lowerback 38.1148 -2.5414 -4.52852
upperback 3.80763 -5.79206 -0.476089
thorax -14.2286 -2.56528 4.49133
lowerneck -25.0122 -0.311835 -7.01247
upperneck 11.7672 0.570821 7.34579
head 7.62035 0.692134 3.68532
rclavicle -9.34288e-015 4.65156e-014
rhumerus -48.4275 10.9545 -82.1696
rradius 55.217
rwrist 13.1458
rhand -3.12184 -2.76152
rfingers 7.12502
rthumb 22.597 -31.4589
lclavicle -9.34288e-015 4.65156e-014
lhumerus -35.0079 8.6718 72.8218
lradius 46.7182
lwrist -205.389
lhand -11.6925 3.82553
lfingers 7.12502
lthumb 14.3533 33.3093
rfemur -195.79 -180.094 205.81
rtibia 45.9526
rfoot 166.594 169.199
rtoes 1.09916
lfemur -0.126978 4.70345 -23.383
ltibia 52.7094
lfoot -20.5461 21.8128
ltoes 14.6701
933
root 3.74815 16.2945 -1.13887 -14.4166 -84.3949 -1.12048
lowerback 38.5971 -2.64005 -4.07044
upperback 3.80558 -5.76096 -0.47321
thorax -14.4532 -2.56723 4.2693
lowerneck -24.7826 -0.303539 -7.80121
upperneck 11.989 0.847261 7.26813
head 7.63158 0.775911 3.82373
rclavicle 3.22031e-014 -1.31198e-014
rhumerus -49.142 10.9784 -81.8636
rradius 56.5065
rwrist 12.2862
rhand -3.1531 -3.13676
rfingers 7.12502
rthumb 22.567 -31.8378
lclavicle 3.22031e-014 -1.31198e-014
lhumerus -35.9669 8.44768 72.5864
lradius 47.2953
lwrist -204.696
lhand -11.856 4.02079
lfingers 7.12502
lthumb 14.1958 33.5157
rfemur -195.424 -179.704 205.852
rtibia 45.9388
rfoot 166.606 169.606
rtoes -0.157561
lfemur -1.45183 5.37006 -23.0808
ltibia 55.7086
lfoot -17.9295 20.8997
ltoes 15.7559
934
root 3.72603 16.266 -1.1205 -15.5427 -84.5694 -0.673443
lowerback 39.2773 -2.71901 -3.64088
upperback 3.87218 -5.73588 -0.513693
thorax -14.6664 -2.57772 4.023
lowerneck -24.4119 -0.197089 -8.40416
upperneck 12.0628 1.19836 7.10097
head 7.56415 0.892744 3.90443
rclavicle 3.6477e-014 -1.47101e-014
rhumerus -49.7373 10.8372 -81.5988
rradius 57.6622
rwrist 11.4138
rhand -3.20638 -3.62147
rfingers 7.12502
rthumb 22.5159 -32.3287
lclavicle 3.6477e-014 -1.47101e-014
lhumerus -36.7014 8.19634 72.2825
lradius 47.7383
lwrist -204.143
lhand -12.1943 4.1336
lfingers 7.12502
lthumb 13.8697 33.6511
rfemur -194.828 -179.2 205.797
rtibia 46.0575
rfoot 166.492 170.114
rtoes -1.3076
lfemur -2.79687 5.94712 -22.8225
ltibia 59.062
lfoot -14.8065 19.9711
ltoes 15.3519
935
root 3.70363 16.2364 -1.10364 -18.0618 -84.6432 0.893255
lowerback 40.2228 -2.75562 -3.31866
upperback 3.99497 -5.72534 -0.596173
thorax -14.8946 -2.5945 3.8022
lowerneck -24.0648 -0.162337 -9.06677
upperneck 12.1335 1.44802 7.0419
head 7.50585 0.969321 4.01832
rclavicle 2.68359e-015 -1.39149e-014
rhumerus -50.3367 10.4914 -81.3741
rradius 58.7825
rwrist 10.5589
rhand -3.32407 -4.21718
rfingers 7.12502
rthumb 22.4029 -32.9381
lclavicle 2.68359e-015 -1.39149e-014
lhumerus -37.2259 7.95238 71.9304
lradius 48.0837
lwrist -203.763
lhand -12.7167 4.12365
lfingers 7.12502
lthumb 13.3663 33.6749
rfemur -193.909 -178.626 205.573
rtibia 46.2627
rfoot 166.261 170.633
rtoes -2.50725
lfemur -4.0639 6.48641 -22.6424
ltibia 62.7132
lfoot -11.2791 19.1048
ltoes 13.9674
936
root 3.6797 16.2057 -1.08676 -21.4298 -84.6549 3.02053
lowerback 41.4136 -2.74901 -3.07033
upperback 4.21124 -5.71283 -0.695324
thorax -15.0798 -2.6167 3.60577
lowerneck -23.918 -0.218934 -9.7655
upperneck 12.2953 1.58349 7.05592
head 7.51834 0.997492 4.15403
rclavicle 3.27001e-014 1.11319e-014
rhumerus -50.8918 10.0327 -81.1516
rradius 59.913
rwrist 9.70695
rhand -3.42172 -4.90705
rfingers 7.12502
rthumb 22.3092 -33.6392
lclavicle 3.27001e-014 1.11319e-014
lhumerus -37.4834 7.74384 71.5583
lradius 48.3847
lwrist -203.518
lhand -13.3436 3.96099
lfingers 7.12502
lthumb 12.7619 33.551
rfemur -192.599 -178.005 205.233
rtibia 46.4975
rfoot 165.885 171.161
rtoes -3.90919
lfemur -5.23903 7.07253 -22.4623
ltibia 66.6287
lfoot -7.71319 18.3808
ltoes 10.9089
937
root 3.65391 16.173 -1.07148 -25.5089 -84.5861 5.59398
lowerback 42.8597 -2.68056 -2.90247
upperback 4.48711 -5.67802 -0.797836
thorax -15.2546 -2.63212 3.44288
lowerneck -23.7459 -0.29709 -10.371
upperneck 12.3954 1.66554 7.01325
head 7.51175 0.998592 4.2465
rclavicle 4.32357e-014 -3.26007e-014
rhumerus -51.4698 9.45407 -80.8785
rradius 61.0483
rwrist 8.90939
rhand -3.49015 -5.51823
rfingers 7.12502
rthumb 22.2435 -34.2582
lclavicle 4.32357e-014 -3.26007e-014
lhumerus -37.504 7.64578 71.1749
lradius 48.6174
lwrist -203.527
lhand -14.0595 3.74248
lfingers 7.12502
lthumb 12.0718 33.3743
rfemur -190.95 -177.35 204.769
rtibia 46.7553
rfoot 165.444 171.693
rtoes -5.16525
lfemur -6.32449 7.69396 -22.2856
ltibia 70.7544
lfoot -4.40328 17.9504
ltoes 6.21078
938
root 3.62754 16.1387 -1.0564 -29.9749 -84.4762 8.3556
lowerback 44.4861 -2.55966 -2.80283
upperback 4.82767 -5.62826 -0.9009
thorax -15.3772 -2.64732 3.30778
lowerneck -23.6586 -0.361865 -10.7784
upperneck 12.5359 1.72902 6.85034
head 7.53671 0.987744 4.2658
rclavicle 3.38928e-014 4.37326e-015
rhumerus -52.0569 8.9296 -80.5875
rradius 62.2183
rwrist 8.08898
rhand -3.53697 -6.08269
rfingers 7.12502
rthumb 22.1985 -34.828
lclavicle 3.38928e-014 4.37326e-015
lhumerus -37.3533 7.59898 70.8026
lradius 48.8128
lwrist -203.697
lhand -14.7461 3.44986
lfingers 7.12502
lthumb 11.4096 33.1194
rfemur -189.028 -176.769 204.218
rtibia 46.9607
rfoot 164.999 172.08
rtoes -6.09732
lfemur -7.38829 8.36736 -22.1007
ltibia 75.0608
lfoot -1.27365 17.7392
ltoes 4.2403
939
root 3.59995 16.0999 -1.04147 -34.6349 -84.3086 11.1624
lowerback 46.2722 -2.39546 -2.74557
upperback 5.19792 -5.56381 -1.00173
thorax -15.4752 -2.66114 3.18937
lowerneck -23.6235 -0.447399 -11.085
upperneck 12.697 1.74176 6.6592
head 7.5832 0.954209 4.25429
rclavicle -3.8266e-015 -1.47101e-014
rhumerus -52.6649 8.49015 -80.2487
rradius 63.3403
rwrist 7.25817
rhand -3.59924 -6.39284
rfingers 7.12502
rthumb 22.1388 -35.1453
lclavicle -3.8266e-015 -1.47101e-014
lhumerus -37.0587 7.58197 70.4791
lradius 48.921
lwrist -203.994
lhand -15.2634 3.12411
lfingers 7.12502
lthumb 10.9107 32.8206
rfemur -186.941 -176.219 203.578
rtibia 47.1242
rfoot 164.627 172.288
rtoes -6.45133
lfemur -8.46815 9.0548 -21.9196
ltibia 79.5268
lfoot 1.49008 17.8069
ltoes 4.4796
940
root 3.57281 16.0675 -1.02638 -38.8055 -84.1679 13.3149
lowerback 49.1035 -2.16643 -2.67463
upperback 4.57793 -5.46869 -0.941996
thorax -15.3664 -2.68101 2.98698
lowerneck -23.6346 -0.526874 -11.1533
upperneck 12.852 1.70761 6.37645
head 7.64274 0.900941 4.16775
rclavicle 8.52289e-014 -1.27222e-014
rhumerus -53.21 8.04832 -79.8918
rradius 64.4119
rwrist 6.49092
rhand -3.53291 -6.53772
rfingers 7.12502
rthumb 22.2024 -35.2826
lclavicle 8.52289e-014 -1.27222e-014
lhumerus -36.6127 7.49901 70.1558
lradius 49.0352
lwrist -204.263
lhand -15.6548 2.74075
lfingers 7.12502
lthumb 10.5332 32.4568
rfemur -184.635 -175.786 202.979
rtibia 47.2303
rfoot 164.286 172.453
rtoes -6.55
lfemur -9.55299 9.81393 -21.6092
ltibia 84.1469
lfoot 3.52394 18.2
ltoes 3.00461
941
root 3.54587 16.0306 -1.01105 -43.1745 -84.0434 15.5912
lowerback 51.2566 -1.91025 -2.53825
upperback 4.90473 -5.30032 -1.04103
thorax -15.3446 -2.67434 2.75561
lowerneck -23.6589 -0.683748 -11.2237
upperneck 12.9363 1.55556 6.18423
head 7.691 0.802423 4.09648
rclavicle -1.14301e-015 1.0138e-014
rhumerus -53.6968 7.67289 -79.5727
rradius 65.4114
rwrist 5.74222
rhand -3.53565 -6.50146
rfingers 7.12502
rthumb 22.1998 -35.2466
lclavicle -1.14301e-015 1.0138e-014
lhumerus -36.048 7.23302 69.8766
lradius 49.2433
lwrist -204.436
lhand -15.9696 2.28488
lfingers 7.12502
lthumb 10.2294 32.0162
rfemur -182.245 -175.465 202.347
rtibia 47.3136
rfoot 163.965 172.68
rtoes -6.62436
lfemur -10.7843 10.6981 -21.2458
ltibia 88.9244
lfoot 4.89485 18.8007
ltoes 0.739605
942
root 3.51876 15.9747 -0.995476 -46.9177 -83.9844 17.0985
lowerback 53.5665 -1.65661 -2.18386
upperback 5.26199 -5.04228 -1.17738
thorax -15.2664 -2.64953 2.33234
lowerneck -23.6281 -0.948582 -11.2867
upperneck 12.8869 1.23249 6.08716
head 7.70044 0.635699 4.0313
rclavicle -2.48481e-014 2.38542e-014
rhumerus -54.0633 7.14972 -79.2676
rradius 66.2618
rwrist 5.15094
rhand -3.51021 -6.2963
rfingers 7.12502
rthumb 22.2242 -35.0386
lclavicle -2.48481e-014 2.38542e-014
lhumerus -35.3459 6.65629 69.6203
lradius 49.6097
lwrist -204.468
lhand -16.2061 1.74206
lfingers 7.12502
lthumb 10.0013 31.4844
rfemur -179.724 -175.159 201.797
rtibia 47.3414
rfoot 163.726 172.912
rtoes -6.69059
lfemur -12.0893 11.6068 -20.7392
ltibia 93.7646
lfoot 5.9701 19.4297
ltoes 0.262667
943
root 3.49172 15.9164 -0.979934 -49.9391 -84.0209 17.7914
lowerback 55.8686 -1.421 -1.65692
upperback 5.76069 -4.7213 -1.31294
thorax -14.9591 -2.62552 1.7901
lowerneck -23.6762 -1.32425 -11.4267
upperneck 12.6286 0.764415 6.15948
head 7.66456 0.419419 4.01474
rclavicle -5.29264e-014 -3.77691e-015
rhumerus -54.143 6.49582 -78.9422
rradius 67.0255
rwrist 4.82957
rhand -3.44515 -5.9821
rfingers 7.12502
rthumb 22.2867 -34.7169
lclavicle -5.29264e-014 -3.77691e-015
lhumerus -34.3555 6.0002 69.3653
lradius 50.1517
lwrist -204.411
lhand -16.5285 1.12933
lfingers 7.12502
lthumb 9.69025 30.8864
rfemur -177.092 -174.93 201.386
rtibia 47.3264
rfoot 163.513 173.094
rtoes -6.56813
lfemur -13.5117 12.5719 -20.0382
ltibia 98.5367
lfoot 6.71397 19.9784
ltoes 0.694665
944
root 3.46391 15.8706 -0.965811 -52.8686 -84.0936 18.3521
lowerback 58.069 -1.1853 -1.05839
upperback 6.42735 -4.37012 -1.45327
thorax -14.3777 -2.60901 1.18754
lowerneck -23.7384 -1.79419 -11.6648
upperneck 12.0724 0.170869 6.42653
head 7.54353 0.164779 4.05892
rclavicle 4.50247e-014 -5.56597e-015
rhumerus -53.9036 5.76315 -78.6062
rradius 67.7355
rwrist 4.68562
rhand -3.35433 -5.59009
rfingers 7.12502
rthumb 22.3739 -34.3145
lclavicle 4.50247e-014 -5.56597e-015
lhumerus -33.0268 5.39875 69.085
lradius 50.8261
lwrist -204.3
lhand -16.9346 0.512521
lfingers 7.12502
lthumb 9.29841 30.2875
rfemur -174.367 -174.776 201.02
rtibia 47.2585
rfoot 163.325 173.224
rtoes -6.52365
lfemur -15.0972 13.6212 -19.2659
ltibia 103.089
lfoot 7.12125 20.1778
ltoes 0.698432
945
root 3.4348 15.8201 -0.95295 -55.6645 -84.1991 18.7898
lowerback 60.1876 -0.94499 -0.41365
upperback 7.18701 -3.98565 -1.56036
thorax -13.6174 -2.58639 0.584418
lowerneck -23.6108 -2.31941 -11.9797
upperneck 11.1356 -0.511273 6.82432
head 7.27817 -0.119434 4.14091
rclavicle 2.9122e-014 7.55382e-015
rhumerus -53.4325 4.99835 -78.2185
rradius 68.4519
rwrist 4.77963
rhand -3.25669 -5.25429
rfingers 7.12502
rthumb 22.4676 -33.9674
lclavicle 2.9122e-014 7.55382e-015
lhumerus -31.48 4.8651 68.8044
lradius 51.7038
lwrist -204.198
lhand -17.5449 -0.122598
lfingers 7.12502
lthumb 8.70956 29.6777
rfemur -171.672 -174.748 200.753
rtibia 47.1804
rfoot 163.159 173.238
rtoes -6.49472
lfemur -16.9649 14.6667 -18.5098
ltibia 107.401
lfoot 7.25272 20.0821
ltoes 0.820043
